/* XPM */
static char *_1679_be41d36a4acbc3fb47ba17e6787850524f78afbe3799e0cfd6a35bcd478422cf[] = {
/* columns rows colors chars-per-pixel */
"16 16 184 2 ",
"   c black",
".  c #000001",
"X  c #050302",
"o  c #060303",
"O  c #000307",
"+  c #040404",
"@  c #080300",
"#  c #090604",
"$  c #090605",
"%  c #100803",
"&  c #160A01",
"*  c #170C03",
"=  c #180C03",
"-  c #1D0C00",
";  c #1D0D02",
":  c #1B0E05",
">  c #1B0F07",
",  c #170F0E",
"<  c #101213",
"1  c #141312",
"2  c #200900",
"3  c #230F03",
"4  c #211003",
"5  c #201107",
"6  c #241204",
"7  c #231409",
"8  c #371600",
"9  c #381B06",
"0  c #3A1E09",
"q  c #381E0C",
"w  c #3B2616",
"e  c #1F2327",
"r  c #1E2428",
"t  c #262625",
"y  c #24292D",
"u  c #292B2D",
"i  c #342921",
"p  c #2C3236",
"a  c #471F02",
"s  c #4C2204",
"d  c #422108",
"f  c #4D2609",
"g  c #4E2608",
"h  c #4F270A",
"j  c #4D280D",
"k  c #542503",
"l  c #512606",
"z  c #552704",
"x  c #5B2803",
"c  c #582906",
"v  c #552909",
"b  c #552D0F",
"n  c #5C2F0E",
"m  c #5F3210",
"M  c #602C07",
"N  c #66330D",
"B  c #763301",
"V  c #7E3805",
"C  c #643411",
"Z  c #703911",
"A  c #713A12",
"S  c #7F3F10",
"D  c #483123",
"F  c #413831",
"G  c #72421E",
"H  c #64432B",
"J  c #7F5A3F",
"K  c #4B4B4B",
"L  c #484A4C",
"P  c #4A4B4C",
"I  c #535454",
"U  c #555555",
"Y  c #555656",
"T  c #595D5F",
"R  c #645448",
"E  c #645B54",
"W  c #4D5A63",
"Q  c #616262",
"!  c #646362",
"~  c #656464",
"^  c #6B6866",
"/  c #6D6C6C",
"(  c #6D6D6D",
")  c #7B726B",
"_  c #697179",
"`  c #717070",
"'  c #767677",
"]  c #777777",
"[  c #7E7A77",
"{  c #71777C",
"}  c #78797B",
"|  c #7F7B78",
" . c #7E7D7C",
".. c #843B06",
"X. c #8E4107",
"o. c #8A400A",
"O. c #88420F",
"+. c #8E4712",
"@. c #8F4C1A",
"#. c #8E4F1F",
"$. c #9F5015",
"%. c #93501E",
"&. c #B2540E",
"*. c #9C5C2D",
"=. c #825431",
"-. c #925C35",
";. c #AC5F25",
":. c #B66C35",
">. c #CB5D0C",
",. c #C65E11",
"<. c #D86209",
"1. c #D8630C",
"2. c #C36017",
"3. c #C76319",
"4. c #E66E15",
"5. c #D07531",
"6. c #8C684D",
"7. c #8F6A4E",
"8. c #9C6D4B",
"9. c #B27648",
"0. c #A57A5A",
"q. c #807165",
"w. c #917560",
"e. c #917E71",
"r. c #88817C",
"t. c #948275",
"y. c #90837A",
"u. c #9E8978",
"i. c #98897E",
"p. c #9C8B7F",
"a. c #A98E79",
"s. c #B48E70",
"d. c #D3874B",
"f. c #DF894A",
"g. c #C98857",
"h. c #C98E63",
"j. c #E2A270",
"k. c #7F8080",
"l. c #7F8386",
"z. c #898886",
"x. c #898988",
"c. c #8B8B8B",
"v. c #928D89",
"b. c #908F8E",
"n. c #9C9189",
"m. c #9B9896",
"M. c #9A9A9A",
"N. c #9C9B9A",
"B. c #AAA29C",
"V. c #8C98A1",
"C. c #9E9FA0",
"Z. c #9BA0A5",
"A. c #A1A0A0",
"S. c #A7A7A6",
"D. c #ACABAA",
"F. c #AFAEAD",
"G. c #B3A9A2",
"H. c #ADAFB0",
"J. c gray69",
"K. c #B0B3B4",
"L. c #B3B4B4",
"P. c #B9B8B7",
"I. c #B6BABD",
"U. c #BCBCBC",
"Y. c #E9BA96",
"T. c #C0AFA3",
"R. c #BCC1C5",
"E. c #C1C1C1",
"W. c #C5C4C4",
"Q. c #C7C6C6",
"!. c #C9C7C6",
"~. c gray79",
"^. c #D3D2D2",
"/. c #D7D8D9",
"(. c #D9D8D8",
"). c #DDDCDB",
"_. c gray89",
"`. c #E4E4E4",
"'. c gray90",
"]. c #F5F6F6",
"[. c #F9F9F8",
"{. c #F9F9F9",
"}. c white",
"|. c None",
/* pixels */
"|.|.|.|.|.|.N S 7 O |.|.|.|.|.|.",
"|.|.|.|.  X l o.* & c d |.|.|.|.",
"|.|.|.Z *.;.-.R 0.6.:.3.9 |.|.|.",
"|.|.z s.y.T.B.K.R.H.i.[ %.8 |.|.",
"|.+ ; 7.P e C.).! / I.b.z.H a |.",
"|.n 1.8.( S.[.U.J.L.N.^.T p.w |.",
": &.=.W x.}.].`.}.U.c.A.K ) 5.2 ",
"> X.h.r !.}.~.E.M.  ~ Y V.n.h # ",
"6 2.a.y P.{.'.W.U t u E Y.9.M 5 ",
". $ G.< x.Q._.(.D.` /.m.f.V m 4 ",
"|.s g.| L ' 1 } Z.I ] k._ , 0 |.",
"|.- G t.q. .p F w.^ F.{ u.@.= |.",
"|.|.O.<.C d.j.e.#.r.l.v.J ..|.|.",
"|.|.|.j q k >.,.x D Q i 3 |.|.|.",
"|.|.|.|.v +.A b $.4.B @ |.|.|.|.",
"|.|.|.|.|.|.g o % f |.|.|.|.|.|."
};
