/* XPM */
static char *_0026_44ecbc1c98284a4ad89618d934a42d2ea493ca02fdb2e09df76c088198dd16f2[] = {
/* columns rows colors chars-per-pixel */
"64 64 217 2 ",
"   c #010101",
".  c #0A0603",
"X  c #0B0907",
"o  c #020409",
"O  c #090708",
"+  c #06080A",
"@  c #0B0A09",
"#  c #140A03",
"$  c #1B0D03",
"%  c #120D09",
"&  c #140903",
"*  c #13100F",
"=  c #1C120B",
"-  c #121212",
";  c #181616",
":  c #1C1B1B",
">  c #1A1817",
",  c #0D1015",
"<  c #270E00",
"1  c #251204",
"2  c #2C1504",
"3  c #23140A",
"4  c #29170A",
"5  c #2C190B",
"6  c #341906",
"7  c #3C1D05",
"8  c #331C0B",
"9  c #371B07",
"0  c #3C210C",
"q  c #181F24",
"w  c #1D2329",
"e  c #242323",
"r  c #2B2B2B",
"t  c #292725",
"y  c #343434",
"u  c #393837",
"i  c #3B3B3A",
"p  c #383837",
"a  c #333232",
"s  c #481F01",
"d  c #44240D",
"f  c #4D280E",
"g  c #492307",
"h  c #532A0C",
"j  c #5B2E0C",
"k  c #542605",
"l  c #5E300F",
"z  c #4C2911",
"x  c #612C05",
"c  c #63320E",
"v  c #6B350C",
"b  c #6E380F",
"n  c #7C3C0C",
"m  c #74370A",
"M  c #6B3610",
"N  c #6E3810",
"B  c #653511",
"V  c #743B11",
"C  c #7C3E11",
"Z  c #702C00",
"A  c #403F3F",
"S  c #7B4116",
"D  c #40403F",
"F  c #694B36",
"G  c #72533D",
"H  c #444444",
"J  c #4C4C4C",
"K  c #464848",
"L  c #545453",
"P  c #5C5C5C",
"I  c #50575C",
"U  c #4F4D4B",
"Y  c #635D59",
"T  c #68615D",
"R  c #636363",
"E  c #6B6B6B",
"W  c #62666A",
"Q  c #737474",
"!  c #7C7C7C",
"~  c #716F6D",
"^  c #813E0C",
"/  c #923E00",
"(  c #8C440E",
")  c #86410E",
"_  c #9A4404",
"`  c #834212",
"'  c #8A4513",
"]  c #8D4815",
"[  c #964A12",
"{  c #9B4D12",
"}  c #904712",
"|  c #9E5017",
" . c #A84D0A",
".. c #B85207",
"X. c #A45114",
"o. c #AB5414",
"O. c #B55915",
"+. c #BC5C15",
"@. c #B05715",
"#. c #AC4E0A",
"$. c #C95A08",
"%. c #C55F14",
"&. c #E45C00",
"*. c #DE6409",
"=. c #D2600B",
"-. c #C56016",
";. c #CC6416",
":. c #C26219",
">. c #C96419",
",. c #D26616",
"<. c #D56817",
"1. c #DC6A15",
"2. c #D06718",
"3. c #D66A19",
"4. c #DD6C18",
"5. c #DF701D",
"6. c #E2660A",
"7. c #E3690E",
"8. c #EA6C0D",
"9. c #E36406",
"0. c #F26E0C",
"q. c #E36C14",
"w. c #EC6F11",
"e. c #E26E18",
"r. c #EC7116",
"t. c #E5701A",
"y. c #EC7319",
"u. c #F2761A",
"i. c #F6781B",
"p. c #FB7B1B",
"a. c #F17314",
"s. c #D17129",
"d. c #E37422",
"f. c #ED7821",
"g. c #F37B22",
"h. c #E27E33",
"j. c #AD6E41",
"k. c #8A796C",
"l. c #897C73",
"z. c #FF811C",
"x. c #EA8539",
"c. c #F48736",
"v. c #88837F",
"b. c #A48D7D",
"n. c #D98D54",
"m. c #E68B48",
"M. c #F3954D",
"N. c #E99353",
"B. c #F69A56",
"V. c #ED914D",
"C. c #C89A78",
"Z. c #DB9F73",
"A. c #EDA36B",
"S. c #EEAC79",
"D. c #F7A971",
"F. c #797D80",
"G. c #7D8082",
"H. c #848484",
"J. c #8B8B8B",
"K. c #888889",
"L. c #939393",
"P. c #9C9C9C",
"I. c #94979A",
"U. c #92908E",
"Y. c #B49883",
"T. c #B1A296",
"R. c #9C9FA1",
"E. c #9BA2A6",
"W. c #A4A4A4",
"Q. c #ABABAB",
"!. c #A4A8AB",
"~. c #B1AFAF",
"^. c #B3B4B4",
"/. c #BBBBBB",
"(. c #B4B8BB",
"). c #ADAFB0",
"_. c #EEB388",
"`. c #F3B88C",
"'. c #F1B182",
"]. c #F2BE97",
"[. c #D3B6A1",
"{. c #F9C9A5",
"}. c #FBD4B5",
"|. c #EFC7AA",
" X c #B6BCC0",
".X c #BBC0C5",
"XX c #C4C4C4",
"oX c #C5CACD",
"OX c #CBCBCC",
"+X c #CCD1D5",
"@X c #CED4D9",
"#X c #D4D4D4",
"$X c #D2D6D9",
"%X c #DCDCDC",
"&X c #D2CDC8",
"*X c #E5D6CA",
"=X c #F9DCC6",
"-X c #FDE1CC",
";X c #FFEDDC",
":X c #FDE7D4",
">X c #FFF3DF",
",X c #DFE1E3",
"<X c #E5E5E5",
"1X c #E5EAED",
"2X c #ECECEC",
"3X c #F7EDE5",
"4X c #FEF3E4",
"5X c #FEF4EA",
"6X c #FFFAEE",
"7X c #EDEFF1",
"8X c #EEF5F8",
"9X c #F4F4F4",
"0X c #FAF7F5",
"qX c #FFFDF4",
"wX c #F6FCFE",
"eX c #FEFEFE",
"rX c None",
/* pixels */
"rXrXrXrXrXrXrXrXrXrXrXrXrXrXrXrXrXrXrXrXrXrXrXrXrXrXrXrXrXrXrXrXrXrXrXrXrXrXrXrXrXrXrXrXrXrXrXrXrXrXrXrXrXrXrXrXrXrXrXrXrXrXrXrX",
"rXrXrXrXrXrXrXrXrXrXrXrXrXrXrXrXrXrXrXrXrXrXrXrXrXrX                        rXrXrXrXrXrXrXrXrXrXrXrXrXrXrXrXrXrXrXrXrXrXrXrXrXrX",
"rXrXrXrXrXrXrXrXrXrXrXrXrXrXrXrXrXrXrXrXrXrX        # 6 f v ^ ` ( b X               rXrXrXrXrXrXrXrXrXrXrXrXrXrXrXrXrXrXrXrXrXrX",
"rXrXrXrXrXrXrXrXrXrXrXrXrXrXrXrXrXrXrX      # g ( +.,.y.u.u.u.p.,.4 O @ @ @ . o           rXrXrXrXrXrXrXrXrXrXrXrXrXrXrXrXrXrXrX",
"rXrXrXrXrXrXrXrXrXrXrXrXrXrXrXrXrX      $ h c N } <.i.e.4.u.u.O.=   @ @ + . @ o 3 { ( 9 .     rXrXrXrXrXrXrXrXrXrXrXrXrXrXrXrXrX",
"rXrXrXrXrXrXrXrXrXrXrXrXrXrXrXrX      . 3 = o     @ V e.y.v 8 % o @ o + + @ o 8 4.i.p.%.4       rXrXrXrXrXrXrXrXrXrXrXrXrXrXrXrX",
"rXrXrXrXrXrXrXrXrXrXrXrXrXrX        @ +   + @ @ @ O o 5 O.'   o + @ @ @ @ @ + +.p.e.M O   + j 1     rXrXrXrXrXrXrXrXrXrXrXrXrXrX",
"rXrXrXrXrXrXrXrXrXrXrXrXrX      @ @ @ @ @ @ @ + @ o o o + O.;.d = o o   + @ @ 8 d 8 o o $ | p.3.h     rXrXrXrXrXrXrXrXrXrXrXrXrX",
"rXrXrXrXrXrXrXrXrXrXrXrX      + o   o o o o + + @ f 8 o @ + o.z.,.o.m 4 @ @ o   o o @ h ;.i.e.e.p.'     rXrXrXrXrXrXrXrXrXrXrXrX",
"rXrXrXrXrXrXrXrXrXrX        @ 4 0 h ' @.O.O.O.O.;.f.u.c       m t.f.g.t.$...#.X.^ [ >.y.y.e.e.u.3.h       rXrXrXrXrXrXrXrXrXrXrX",
"rXrXrXrXrXrXrXrXrX      ' +.>.e.y.r.i.y.y.r.r.w.8.6.7.y.F W W.oX6XeXeXeX4X{.B.c.u.0.t.d.t.y.p.o.3 o o 0 2   rXrXrXrXrXrXrXrXrXrX",
"rXrXrXrXrXrXrXrXrX    { p.y.8.q.t.5.4.4.5.5.d.x.N.'.}.qXeXeX0X%X).I.K.L.oXwXeXeX5X_.d.9.9.$.x o + @   %.;.#   rXrXrXrXrXrXrXrXrX",
"rXrXrXrXrXrXrXrX    ) u.4.q.A.5XeXqX6X6XqXqXeXeXeXeX1X(.Q r         @ :   @ J F.oXeX4XS.`.U.w   @ o V t.y.+.    rXrXrXrXrXrXrXrX",
"rXrXrXrXrXrXrX    c p.i.7.n.eX+XP.P.E.Q.!.E.J.E H ;       i L.p ! %X9XJ.P L r     A %XeXeXeX2Xe   ` u.e.p.X.      rXrXrXrXrXrXrX",
"rXrXrXrXrXrX    7 y.%.] < E.eX%   : -       @ e K ! J.r (.eX2X2XeXeX0X9XeXeXeXP.  @ X u ; J eXK./ p.u.e.C @ +       rXrXrXrXrXrX",
"rXrXrXrXrXrX    c h + +   H.eXy   i XXeX9X0XeXeXeXeXW.#XeX0XeXeXwXeXeXeXeXeX0XeXI.P R     : <XeX{.q.X.8   @ @ @     rXrXrXrXrXrX",
"rXrXrXrXrX    . + o + @ . e eX/.    @ R !.OX#X#X2X0X0XeXeXeXeXeXeX9XXXH.K ^.eXeXeX#X2X%X! y   L.eXk.  @ @ @ @ +       rXrXrXrXrX",
"rXrXrXrX      + @ @ X @ +   H.eXP   .         o - i P.9XeX2X<XOXE e         T 2XeXeX0XeX~.G.J.  %X$X-     o   3 N 6   rXrXrXrXrX",
"rXrXrXrX      @ O o o   = N ;.-XeXi   o .             H.eX0X(.Q H   @ G.J ,   - Q.L.J.eX2XD @   L.eX9XW.u s [ 4.p.O.    rXrXrXrX",
"rXrXrX      @ o % 8 c { 4.u.w.c.5X7XL         D P.$X0X<X^.W.%X%XQ p . ~./.Q , -     ~.eXeX9XH.p @ u W.wXeX{.i.t.y.y.6   rXrXrXrX",
"rXrXrX    o   h ,.y.i.u.t.u.d.Z T eX#X*   o Q.eXeXeX#XE ~ W L L W.eXP.p K E OX9X%X#X$X2XeXeXeXeX<XU.i : P.eX].=.] 5 .     rXrXrX",
"rXrXrX      h p.y.e.4.e.4.' $ w 2X2Xt   o ~.eXeXeX9X/.9XeXeX#XJ @ P P.OXeXeXeX0XH.J P L L.eXeX,XQ.(.XXH.  L.eXU   o @     rXrXrX",
"rXrX      o @.y.e.t.t.y.d   p 2X9Xu   o ^.eX0XeXeXeXeXeXeXXXP.%X9X%XXX7XeX2X~.P P.2X%X#X/.#X0XL P K K Q K - eX^.  @ o       rXrX",
"rXrX      h y.t.q.t.t.h   y 9X2Xy   @ ^.eX0XeXeXeXeXeXeXeX2XeXeXeXeXeXeX2X/./.OX! t y i W <XeXi         K   W.0X, o B n     rXrX",
"rXrX    3 3.y.e.e.u.h   > %X9Xr   @ ^.eX0XeXeXeXeXeXeXeXeXeX2X0XeXeX0X<X+X/.H.D Q 1XeX0X/.L.9X<XP -   i L   ! eXF ..p.4.#   rXrX",
"rXrX  . %.y.4.e.p.V o   W.eXJ   o ^.eXeXeXeXeXeXeXeXeXeXeX/.OXeXeXeXeX,X/.P.Q.<X2XQ.P i E (.0XeXeX2Xi : E K Q eXx.w.t.t.7   rXrX",
"rX    9 y.e.y.y.M o   J eXJ.    L.eX#X2XeXeXeXeXeXeXeXeXXXJ.eXXX0XeXeXeXeX0X#XQ.H.H.^.%XOXP.! K w : -   P e ).qXt.4.4.p.m   . rX",
"rX    k u.y.e.9 o 8 C *X1X-   r /.i P 0XeXeXeXeXeXeXeX0XP 9X#X!.eXeXeXeX2X^.U.~ E E L e .   : K Q J.H.E : ; wX{.*.t.u.4.d     rX",
"rX.   ^ i.@.3 d %.w.M.eX!     -   i 9XeXeXeXeXeXeXeXeXP.Q eXG.#XeXeXeXL.,   - p p H J Q W.,X2XeXeXeX7XeXW.R eXN.w.i.{ =       rX",
"rX    h 0   3 y.y.*.].eXe       : 2XeXeXeXeXeXeXeXeXeXH oX0XP 0XeXeXL.      r L.L./.2XeX! a : : * ; o &XK.I.qXy.O.f   + @     rX",
"rX      O h +.y.4.e.4XoX        L.eX0XeXeXeXeXeXeXeX#Xe eX/.R eXeX<X;               ^.eXr     @ P.%XK v.R oX*X7 O o @ @       rX",
"rX    # | p.y.e.a.h.eXH.      * <XeXeXeXeXeXeXeX0XeXH.a eXH.! eXeXL.            @   L.#X  o   H.eXeXJ.r U wX!   % o o o =     rX",
"rX    [ p.4.e.y._ k.eXD   o   i eXeX<X<XeXeXeXeXeXeXL Q.eXR J.eXeXL   .         o   v.P     : 9X X7XW.  ~.eXq   + 4 j | >..   rX",
"rX    { u.4.y.o.  (.9X,       P eX9XL #XeXeXeXeXeX9XXXeXeXP J.eXeXp                 : +     ~ eXG &X2XL.eXT.k V X.q.p.p.{     rX",
"rX    ( p.t.i.1.s.qXE.o - o   J.eXi p eXeXeXeXeXeXeXeX0XeXR Q eXeXi           o             (.6X8.V.5XeX|.r.u.u.p.p.X.5       rX",
"rX    f h 8 { 8.D.eX[.^.U.    (.W   L.eXeX#X9XeXeXeXeXeXeXH.H eXeXQ   @ H Q.#X%X/.p H.H.    @X-X7.q.d.h.q.q.4.u.+.f +         rX",
"rX        o o 7 C.:X4XeXT   @ D   @ %XeXeXH.P.eX0XeXeXeXeX/.- 1XeX%X  J eXeXeXeXeX7XH.eX!   .X4Xq.t.e.q.e.e.i.[ @   o 9 j     rX",
"rX      @ @ @ o   k =X7X;         H eX0XeXW.@ <XeXeXeXeXeXeX: ! eXeXR.  : : T <XeXeXOX<X9X  H.eXh.9.t.t.u.y.N o @ o @ <.b     rX",
"rXrX    @ @ @ @ : E.eXE       o   K.eX0XeX<Xo p 9XeX0XeXeXeXP.  /.eXeXH.  .   L eXeXeX0XeXi p eX3X'.r.t.| 8 o + o 4 O.p.6   rXrX",
"rXrX    o @ @   ! eX%Xe           XX1X0XeXeXQ   i <XeXeX0XeXeXL.: P.7XeXR   o o $XeX^.OXeX!   #X+XeXC.< o +   % ` e.p.`     rXrX",
"rXrX      +   % 4 Y.eX0X$X.Xt   @ K : 2XeXeX9Xy   - L.9XeXeXeXeX2XW.XXeX9Xy     Q.9X  L eX^.  r   #X@X  @ + 8 3.p.p.'       rXrX",
"rXrX      % V 2.4.*.m.].;XeXr   o     Q.eX0XeX#X:     : ! %XeXeXeXeXXXW.eX#X@   E P H.L %XeXJ : L L.0X- . o N V V j @       rXrX",
"rXrXrX    { p.y.i.i.a.&.`.wX:     @   i eXXXJ : o         o D L.#XeX7X: J eXP.    U eXJ e P , Q ! J.eX;   @ o   o o +     rXrXrX",
"rXrXrX    h p.3.` C { =.;X@X  - U.L.    H @                     @ a J.E   P eXI   OXeXR.E Q J.0XR J eXP   @ @ @ @ %       rXrXrX",
"rXrXrXrX  . v 3 o o   a eX$X/.eXeXeXL       @ @                         @   (.eXi   P XX9X9XOXP   ; eXJ.  @ + o   o     rXrXrXrX",
"rXrXrXrX      o o o   F.eX0X,X[.B.:XwXJ     ^.W.              * r u r       K wX9XJ.:         H @ r wXY.& = % % d 0     rXrXrXrX",
"rXrXrXrX      % f c 6 ~ I q   . x s.;XeX! L eXeX~.@   o   > W.8XeXeXeX$XJ.:   [.eXeXeX%XXXOX<XL @ (.eXx.1.,.;.,.t.9   rXrXrXrXrX",
"rXrXrXrXrX    s i.u.r.$.n 7 @ o o & S }.eXeX0X|.eX#Xr   @ OXeX}.D.A.`.:XeXJ.  K eXeXeXeXeXeXJ.  Q.eX'.*.y.t.t.p.^     rXrXrXrXrX",
"rXrXrXrXrXrX    { y.e.y.i.i.>.C 5 o   k N.=X0Xd.Z.wXeXT ~ eXA...$.7.*.*.=X1X*   L ~.<X^.W.P.  p eXW...i.4.e.y.%..   rXrXrXrXrXrX",
"rXrXrXrXrXrX    $ ;.y.4.e.e.t.u.e.V % o 6 ,.M.d.8.j. XeXeX2X%.+.3.p.g.0.B.eX/.e     ; @ o   : <X9X: $ -.i.q.t.7     rXrXrXrXrXrX",
"rXrXrXrXrXrXrX    9 e.u.t.q.e.t.i.p.<.b O 4 7.e.t.8.^ L +X%X, 9 B ^ V c k l.wXeX^.      % P <XwXK   + % { i.v     rXrXrXrXrXrXrX",
"rXrXrXrXrXrXrXrX    $ b e.e.y.4.] ^ O.y.1.X.4.e.e.e.u. .8 y + o o o o o o   r #X9XQ.H.Q.eXeX4Xn.< o @ . + 9     rXrXrXrXrXrXrXrX",
"rXrXrXrXrXrXrXrXrX    1 t.y.e.8 o o o = l <.i.t.e.e.e.g.y.^ 4   o + % @ @ %   Q.eX0XeX9X!.Y ' ..t.N o O +     rXrXrXrXrXrXrXrXrX",
"rXrXrXrXrXrXrXrXrXrX    v i.B   % @ O +   O V t.y.e.t.e.t.i.t.X.d % o o o + @ L XX/.I ;       o 5 O.X..     rXrXrXrXrXrXrXrXrXrX",
"rXrXrXrXrXrXrXrXrXrXrX    9 @ @ +   o o + + o 5 %.u.e.e.q.e.t.u.u.<.[ M f = o   > o   . @ @ @ X o X j .   rXrXrXrXrXrXrXrXrXrXrX",
"rXrXrXrXrXrXrXrXrXrXrXrX      o = V h 5 3 % o   = X.u.e.e.e.e.e.e.e.u.i.u.;.V =   o o @ @ @ @ @ @       rXrXrXrXrXrXrXrXrXrXrXrX",
"rXrXrXrXrXrXrXrXrXrXrXrXrX      j p.p.q.4.<.N % o o S u.u.u.u.y.y.u.e.e.e.y.i.<.X.M 4 o   @ @ o       rXrXrXrXrXrXrXrXrXrXrXrXrX",
"rXrXrXrXrXrXrXrXrXrXrXrXrXrX      9 O.i.u.t.y.2.C X o d c B l f d d %.y.e.e.e.r.u.u.e.o.f +         rXrXrXrXrXrXrXrXrXrXrXrXrXrX",
"rXrXrXrXrXrXrXrXrXrXrXrXrXrXrXrX      k O.y.y.y.u.@.5   o o   o   % 4.e.e.e.4.e.q.u.u.1.b       rXrXrXrXrXrXrXrXrXrXrXrXrXrXrXrX",
"rXrXrXrXrXrXrXrXrXrXrXrXrXrXrXrXrXrX      s [ ,.y.p.t.^ @ o @ @ + + ' p.t.y.u.u.1.o.f .     rXrXrXrXrXrXrXrXrXrXrXrXrXrXrXrXrXrX",
"rXrXrXrXrXrXrXrXrXrXrXrXrXrXrXrXrXrXrXrX      & g n o.q.X.% @ @ @ + o X.4.O.( f $       rXrXrXrXrXrXrXrXrXrXrXrXrXrXrXrXrXrXrXrX",
"rXrXrXrXrXrXrXrXrXrXrXrXrXrXrXrXrXrXrXrXrXrX            2 $       .     &           rXrXrXrXrXrXrXrXrXrXrXrXrXrXrXrXrXrXrXrXrXrX",
"rXrXrXrXrXrXrXrXrXrXrXrXrXrXrXrXrXrXrXrXrXrXrXrXrXrX                        rXrXrXrXrXrXrXrXrXrXrXrXrXrXrXrXrXrXrXrXrXrXrXrXrXrX",
"rXrXrXrXrXrXrXrXrXrXrXrXrXrXrXrXrXrXrXrXrXrXrXrXrXrXrXrXrXrXrXrXrXrXrXrXrXrXrXrXrXrXrXrXrXrXrXrXrXrXrXrXrXrXrXrXrXrXrXrXrXrXrXrX"
};
