/* XPM */
static char *_84_e48be1be40e7faa1fcf7cf11c89d6afcd718c2dc02047b44aa6510284253f918[] = {
/* columns rows colors chars-per-pixel */
"32 32 200 2 ",
"   c #010101",
".  c #0B0501",
"X  c #0D0906",
"o  c #020309",
"O  c #09070B",
"+  c #0C0B0A",
"@  c #130A03",
"#  c #1C0D03",
"$  c #140E0A",
"%  c #160600",
"&  c #1E130B",
"*  c #17100B",
"=  c #0D0C11",
"-  c #0B1013",
";  c #131313",
":  c #12161A",
">  c #1A1A1A",
",  c #231205",
"<  c #2B1405",
"1  c #2B190B",
"2  c #26160B",
"3  c #331906",
"4  c #3A1C06",
"5  c #341D0D",
"6  c #341704",
"7  c #2B1C11",
"8  c #3B200D",
"9  c #372519",
"0  c #2C2B2B",
"q  c #252627",
"w  c #302F2E",
"e  c #262D32",
"r  c #2D3338",
"t  c #333333",
"y  c #37393C",
"u  c #3B3B3B",
"i  c #383635",
"p  c #472307",
"a  c #44240C",
"s  c #4D270B",
"d  c #5C2600",
"f  c #552B0C",
"g  c #5C2D0B",
"h  c #542605",
"j  c #442916",
"k  c #552D10",
"l  c #593011",
"z  c #602F0A",
"x  c #67320C",
"c  c #74370A",
"v  c #74390D",
"b  c #7A3808",
"n  c #663510",
"m  c #693610",
"M  c #723B13",
"N  c #7B3E12",
"B  c #664C38",
"V  c #383D41",
"C  c #3F4244",
"Z  c #444443",
"A  c #4B4B4B",
"S  c #474D53",
"D  c #555554",
"F  c #5D5C5B",
"G  c #575758",
"H  c #7B6A5D",
"J  c #5D5F61",
"K  c #5C656C",
"L  c #646463",
"P  c #6C6560",
"I  c #6B6B6B",
"U  c #63686C",
"Y  c #6E7377",
"T  c #767676",
"R  c #747779",
"E  c #7C7C7C",
"W  c #863E09",
"Q  c #87420E",
"!  c #954205",
"~  c #874515",
"^  c #944A13",
"/  c #9C4D13",
"(  c #954B14",
")  c #B75207",
"_  c #A95313",
"`  c #B45916",
"'  c #BA5B14",
"]  c #A94D09",
"[  c #995A2B",
"{  c #A56331",
"}  c #B16934",
"|  c #CA5B08",
" . c #C15E14",
".. c #E65E00",
"X. c #DE6205",
"o. c #DF670E",
"O. c #D7630C",
"+. c #CA6418",
"@. c #C76217",
"#. c #D26615",
"$. c #DD6C19",
"%. c #DB6B17",
"&. c #E1690F",
"*. c #E36B12",
"=. c #E16E19",
"-. c #E5711B",
";. c #EB731A",
":. c #EB7117",
">. c #F37212",
",. c #F37619",
"<. c #FB7B1C",
"1. c #FB7D1A",
"2. c #CD7B3D",
"3. c #D77D3B",
"4. c #FA7E20",
"5. c #E67F32",
"6. c #E67B2B",
"7. c #957156",
"8. c #837F7D",
"9. c #977760",
"0. c #CA7D42",
"q. c #FF831D",
"w. c #FF8722",
"e. c #FC8933",
"r. c #F58431",
"t. c #FE943E",
"y. c #B48A6B",
"u. c #D98343",
"i. c #F49C5B",
"p. c #E98C47",
"a. c #FFA65A",
"s. c #FFBC7E",
"d. c #EBAA7A",
"f. c #787E82",
"g. c #838383",
"h. c #888786",
"j. c #8A8A8A",
"k. c #84898D",
"l. c #8D9193",
"z. c #959494",
"x. c #94999C",
"c. c #9C9C9C",
"v. c #A48F80",
"b. c #A5A09D",
"n. c #979EA4",
"m. c #9CA5AB",
"M. c #A4A4A4",
"N. c #A5A9AC",
"B. c #ACACAC",
"V. c #B1A9A3",
"C. c #BDB1A7",
"Z. c #B7B2AE",
"A. c #ABAEB0",
"S. c #ADB1B3",
"D. c #AFB4B8",
"F. c #B4B4B4",
"G. c #BCBBBB",
"H. c #BEB8B4",
"J. c #D4AA89",
"K. c #F8BA89",
"L. c #C5BCB6",
"P. c #C2B2A7",
"I. c #FFC088",
"U. c #F8C39A",
"Y. c #D7C5B8",
"T. c #E1C4AE",
"R. c #F7CCAA",
"E. c #FFD1A9",
"W. c #E7CEBB",
"Q. c #E7C9B3",
"!. c #F4CEB1",
"~. c #FCD4B5",
"^. c #B5BFC7",
"/. c #BDC3C8",
"(. c #C2C2C2",
"). c #CBCBCC",
"_. c #CBC9C7",
"`. c #D1CDC9",
"'. c #D5D0CC",
"]. c #CFD0D1",
"[. c #D4D4D4",
"{. c #DCDCDC",
"}. c #DAD8D7",
"|. c #E7D3C5",
" X c #F2DCC7",
".X c #E6DFD9",
"XX c #FDE1CB",
"oX c #FFEAD9",
"OX c #FFF5DE",
"+X c #DFE0E0",
"@X c #E5E5E5",
"#X c #EDEDED",
"$X c #E2E9EC",
"%X c #F0EFEF",
"&X c #FAF0E9",
"*X c #EFF0F0",
"=X c #F4F4F4",
"-X c #FEFEFE",
";X c #FCF7F1",
":X c None",
/* pixels */
":X:X:X:X:X:X:X:X:X:X:X:X:X:X        :X:X:X:X:X:X:X:X:X:X:X:X:X:X",
":X:X:X:X:X:X:X:X:X:X  , f W / ' x o X       :X:X:X:X:X:X:X:X:X:X",
":X:X:X:X:X:X:X:X  o 2 5 m =.=.M $ + O & ` ^     :X:X:X:X:X:X:X:X",
":X:X:X:X:X:X:X    o     o O M s o     5 ( & 8 Q # :X:X:X:X:X:X:X",
":X:X:X:X:X:X  $ < s z g W d   ( 5.{ M p 6 c -.q./   :X:X:X:X:X:X",
":X:X:X:X:X<  .$.r.e.e.t.a.I.V.N.P.P.Q.E.K.<.o.c o a p :X:X:X:X:X",
":X:X:X:X# *.r.Q.L.C.V.b.l.K D A S U Z S E W.|.S % -.#.o :X:X:X:X",
":X:X:X  M d P x.  R k.c.G.h.[.-X-X-X-X}.i r y {.3.] 1 o   :X:X:X",
":X:X    O   = _.q 7 R f.h.}.-X#Xz.A u ].-X@XF A `.> o ; ,   :X:X",
":X:X  o & a ! i.(.:   O A z.).A.t u Z ; F {.@Xt E /.y.#.%.X :X:X",
":X    n $.<.#.x +XZ 0 #X-X[.F.R h.c.(.+Xz.M.#X=XM.L A.J.6 o   :X",
":X  # %.<.' $ /.D q *X-X=X-X;X@X{.=X*XM.h.h.L.N.> u w D.; 3   :X",
":X  / 1.@.  S.I 0 ;X-X-X-X-X#X#X-X=XG.M.F.M.B.#XI > y S.2.&.# :X",
":X< 1.` # H N.  x.[.-X-X-X=XF.}.=X-X{.c.E L I R j.D y Y.w.:.< :X",
"  3 n k O.~.y   D =X-X-X-XG.B.G.-Xj.  t I B.R T g.F.m.K.) 8     ",
"    n *.e.L.    [.-X-X-X-Xg.B.(.@X    O - L.> > ).A M.P   O X   ",
"  p q.| 9.l.  i =X(.-X-X*X_.F.).B.        0   z..Xx.L.j M +.s   ",
"  1 / | R.n.+ D I c.-X=X;X-XB.G.G.  D g.Z 0 - Y.6.U.p.>.+.a     ",
":X  o @ 7.&X0   > -X(.c.-X-X[.I -XZ E @X=X#XJ C.r...>.N   s 3 :X",
":X  O   k.S.    F -X#X0 F.-X-Xg.c.@XO > #X*XM.R oX} 3 o N +.% :X",
":X  X f 0.R.'.>   T -XB.  I [.-X@X@X^.  k.J ).> k.E   M ' 1   :X",
":X  4 1.) @.W.e V > E >       t l.L f.y.i ^.I h.j.z.  + o   :X:X",
":X:X  2   y +XL.OXY   A o       : :   G.j.G E I t H.@ * 1   :X:X",
":X:X  @ / [ B $ 8 T._.;XB.o u .X!. Xf.u -X%X@XZ x.K.| ;.g   :X:X",
":X:X:X  _ 1.o.@.g % y.i.d.^.}.u.&.,.XXS 0 I u U Z.! q._   :X:X:X",
":X:X:X:X. ^ ;.:.+./ c *.X.} 8.$ 4 p 9 ].z.u z. X9   M , :X:X:X:X",
":X:X:X:X:X  @.m   $ l +.<.*.) m @ o   C =XB.F f N 5   :X:X:X:X:X",
":X:X:X:X:X:XX o 5 5 o o ~ <.<.1.;.` ~ 1 o     o X # :X:X:X:X:X:X",
":X:X:X:X:X:X:X  g %.;.^ * k _ ( / :.,.=.' ~ 2 o   :X:X:X:X:X:X:X",
":X:X:X:X:X:X:X:X  # v #.-.n o o o +.1.:.#.Q #   :X:X:X:X:X:X:X:X",
":X:X:X:X:X:X:X:X:X:X    3 c 4     1 x 4 . :X:X:X:X:X:X:X:X:X:X:X",
":X:X:X:X:X:X:X:X:X:X:X:X:X:X        :X:X:X:X:X:X:X:X:X:X:X:X:X:X"
};
